Simulation
nRows=32
nColumns=15
endheader
time  TH_x TH_y TH_z SC_y  SC_z  SC_x  AC_y  AC_z  AC_x  GH_y  GH_z  GH_yy  EL_x  PS_y
0.0  0.000000  0.000000  0.000000  -28.60025900768346  -1.8842393728594595  11.78204962765593  53.348871756015484  -7.588899799474947  -9.401799525589997  17.989110827902717  -1.2946471446375234  6.291878931270851  26.089930728093375  0.000000
0.015  0.000000  0.000000  0.000000  -28.601599202618516  -1.4131006226969838  12.015063977506507  53.309756685969184  -7.339619143272018  -9.79434650907364  18.117441734595758  -0.8244033878450423  6.370380995108611  26.043247983478075  0.000000
0.03  0.000000  0.000000  0.000000  -28.335232441545944  -1.0971293225643235  12.232042175891422  52.93621369909711  -7.115376292515898  -10.177617949541778  18.137719944755986  -0.3596297729267613  6.271167178371982  25.878695254939913  0.000000
0.045  0.000000  0.000000  0.000000  -28.100900034903237  -0.906677250458472  12.409916531019833  52.58466178545377  -6.903075752994595  -10.45697902684239  18.170017856608418  0.18047164837119173  6.097270760235841  25.684243566854835  0.000000
0.06  0.000000  0.000000  0.000000  -27.931250833199357  -0.8203774953689944  12.563554961635877  52.24496807363071  -6.696575113147949  -10.650635831359752  18.21585408176579  0.780514340008535  5.849100295147171  25.543700410613244  0.000000
0.075  0.000000  0.000000  0.000000  -27.816383544394174  -0.803026511415264  12.70589117210161  51.87701366154661  -6.5154695525550546  -10.751363893041136  18.26360686794767  1.4267586500358334  5.52242986457005  25.440158581689495  0.000000
0.09  0.000000  0.000000  0.000000  -27.720982900541216  -0.830703672504292  12.848864522691647  51.43244847938622  -6.36120767476921  -10.766171350433773  18.292013101515842  2.0894139205951694  5.1046931220895235  25.355559604815657  0.000000
0.105  0.000000  0.000000  0.000000  -27.609823970648034  -0.9008791349866292  12.987034388059138  50.89959211268437  -6.196874471417645  -10.69802830117198  18.291847236258455  2.726355728995493  4.591370466474574  25.250647330902  0.000000
0.12  0.000000  0.000000  0.000000  -27.495007064587533  -1.0273077524772596  13.110345558645832  50.291767266061086  -5.9615546149563245  -10.553217081035532  18.298972685508623  3.302046507634123  4.016876780745669  25.104948865595226  0.000000
0.135  0.000000  0.000000  0.000000  -27.434338249445673  -1.2237942889364237  13.269757931747703  49.64610577400514  -5.654418366181196  -10.379333626283946  18.38481192137136  3.8155112472122474  3.4523219323026213  24.92545551559724  0.000000
0.15  0.000000  0.000000  0.000000  -27.419610839012133  -1.5206857423027893  13.464392739565229  49.214525323304876  -5.360955714330793  -10.277846685120478  18.51749497272954  4.401149238551774  2.856630440029926  24.77200478249038  0.000000
0.16499999999999998  0.000000  0.000000  0.000000  -27.41309145670714  -1.8425675216625559  13.633808595548542  49.32392225543863  -5.208437786025534  -10.297899468103243  18.630736516760752  5.200969108858809  2.1650445801420446  24.719437874268856  0.000000
0.18  0.000000  0.000000  0.000000  -27.436143692243938  -2.01224218439133  13.809093614465821  49.72386208876212  -5.198336472749071  -10.360865360552848  18.786938427783237  6.067804161065836  1.4900728158527752  24.76455748211637  0.000000
0.195  0.000000  0.000000  0.000000  -27.477329461675257  -2.028081140763966  14.03445951937322  49.96233138912352  -5.243926191993508  -10.408027953670338  18.99497660267129  6.842645231449005  0.8790426195894979  24.815938187318004  0.000000
0.21  0.000000  0.000000  0.000000  -27.510054441356004  -2.0087575905457533  14.3022859968693  50.1125734781572  -5.350320715842622  -10.487313400081783  19.164584930289625  7.5990478395276115  0.22640110083991066  24.826357724353016  0.000000
0.22499999999999998  0.000000  0.000000  0.000000  -27.53814010381653  -2.000916339603991  14.604231891280744  50.232089075161944  -5.485846256159116  -10.620839885160011  19.3149258164711  8.356125433562207  -0.4449812848218885  24.80270633388003  0.000000
0.24  0.000000  0.000000  0.000000  -27.550033225792156  -2.009396541788842  14.964950661561389  50.27611584605881  -5.646016911326168  -10.81539665981218  19.460240525084007  9.088603393676904  -1.11915255777453  24.746886182124832  0.000000
0.255  0.000000  0.000000  0.000000  -27.56423363172225  -2.0170237035666236  15.371316584108484  50.26395038948694  -5.833147615291283  -11.03864259434446  19.593712318352896  9.792397753505803  -1.8026046614786153  24.6743804466327  0.000000
0.27  0.000000  0.000000  0.000000  -27.602623653580043  -2.0099859646765443  15.748324938058413  50.216118777749465  -5.991253215950583  -11.23101922242603  19.73588921217523  10.478704621108259  -2.466531946186007  24.599837030534864  0.000000
0.285  0.000000  0.000000  0.000000  -27.652391643631905  -2.000722622880062  16.06913260440036  50.20854775119755  -6.105909901530776  -11.40435989117951  19.87388977994058  11.190610208662273  -3.121264399340571  24.5283533167512  0.000000
0.3  0.000000  0.000000  0.000000  -27.693684674080295  -1.994895806728569  16.343755273372928  50.223981454556814  -6.161724614395471  -11.570265266868255  19.988204638042642  11.927818859670705  -3.7661326861247675  24.45640960966683  0.000000
0.315  0.000000  0.000000  0.000000  -27.71764856817272  -1.9744531876456455  16.564786297259246  50.24687312712482  -6.153029543007834  -11.701417451510931  20.06744186221879  12.681648660620109  -4.407997659110882  24.368407803453433  0.000000
0.32999999999999996  0.000000  0.000000  0.000000  -27.731829601957788  -1.9208754262607035  16.74103991544459  50.28438900363298  -6.093152832700934  -11.785888096481676  20.125722787938127  13.44906554297888  -5.042326474408396  24.26260080441901  0.000000
0.345  0.000000  0.000000  0.000000  -27.740287548142792  -1.8334554326350954  16.897749121104816  50.32851520038712  -5.999306665119121  -11.836491266812377  20.17320445064606  14.22537181346797  -5.664706022320977  24.14893073137397  0.000000
0.36  0.000000  0.000000  0.000000  -27.744403025747705  -1.7235840901938402  17.04929035348542  50.37594763981245  -5.878775734984262  -11.866950304363979  20.212476532430454  15.008716036576427  -6.274668905469689  24.030560901060294  0.000000
0.375  0.000000  0.000000  0.000000  -27.746462775021683  -1.6033172224795529  17.200965517657107  50.43033994836815  -5.7346515598316845  -11.886599488115685  20.244200572274085  15.800008451278545  -6.871484800217538  23.90840280214505  0.000000
0.39  0.000000  0.000000  0.000000  -27.74895330777221  -1.480385689729823  17.354598968002378  50.492377585939984  -5.568030740001257  -11.899490111614833  20.269130073938914  16.597640054977912  -7.45305374002619  23.783838592749834  0.000000
0.40499999999999997  0.000000  0.000000  0.000000  -27.753153816924165  -1.3585169783840634  17.509422119249393  50.56471848456676  -5.381144598203312  -11.906876301369193  20.28709340688944  17.400562392372187  -8.01910839244077  23.657762966491376  0.000000
0.42  0.000000  0.000000  0.000000  -27.760095667047047  -1.2390687126799955  17.664523261918188  50.64728605480749  -5.175234466466388  -11.908486643220712  20.299120391940356  18.206022977711534  -8.568145258908533  23.530676417052483  0.000000
0.435  0.000000  0.000000  0.000000  -27.769918237843296  -1.1229142248388844  17.81845323979936  50.740161466865054  -4.951851480975902  -11.903817557327788  20.305090742041294  19.012038196363903  -9.100524726000437  23.402301790504627  0.000000
0.44999999999999996  0.000000  0.000000  0.000000  -27.783720683982654  -1.0107045123811653  17.972520296990957  50.841535940737685  -4.713199829158514  -11.89332382823295  20.30538267908847  19.815617111875344  -9.616024175706816  23.27266491197133  0.000000
0.46499999999999997  0.000000  0.000000  0.000000  -27.802685013514523  -0.9015508346838712  18.12923244701956  50.950996307499494  -4.463306013404139  -11.878168064326328  20.301360684842425  20.614271020441745  -10.114685895198013  23.1418288378004  0.000000
